HIERARCHY
ROOT Hips
{
    OFFSET   0.000000   0.000000   0.000000
    CHANNELS 6 Xposition Yposition Zposition Zrotation Xrotation Yrotation
    JOINT Chest
    {
        OFFSET   0.000000   8.007230   0.000000
        CHANNELS 3 Zrotation Xrotation Yrotation
        JOINT Chest2
        {
            OFFSET   0.000000  22.077100   0.000000
            CHANNELS 3 Zrotation Xrotation Yrotation
            JOINT Neck
            {
                OFFSET   0.000000  23.254800   0.000000
                CHANNELS 3 Zrotation Xrotation Yrotation
                JOINT Head
                {
                    OFFSET   0.000010  14.370000   1.956600
                    CHANNELS 3 Zrotation Xrotation Yrotation
                    End Site
                    {
                        OFFSET   0.000000  19.566000   0.000000
                    }
                }
            }
            JOINT LeftCollar
            {
                OFFSET   3.911900  19.017000  -0.467062
                CHANNELS 3 Zrotation Xrotation Yrotation
                JOINT LeftShoulder
                {
                    OFFSET  10.383700   0.000000   0.000000
                    CHANNELS 3 Zrotation Xrotation Yrotation
                    JOINT LeftElbow
                    {
                        OFFSET  26.662100   0.001193   0.000835
                        CHANNELS 3 Zrotation Xrotation Yrotation
                        JOINT LeftWrist
                        {
                            OFFSET  28.869000  -0.000058  -0.000075
                            CHANNELS 3 Zrotation Xrotation Yrotation
                            JOINT LeftFinger0
                            {
                                OFFSET   2.044660  -2.323460   3.252850
                                CHANNELS 3 Zrotation Xrotation Yrotation
                                JOINT LeftFinger01
                                {
                                    OFFSET   3.088130   0.000000   0.000000
                                    CHANNELS 3 Zrotation Xrotation Yrotation
                                    JOINT LeftFinger02
                                    {
                                        OFFSET   2.639450   0.000000   0.000000
                                        CHANNELS 3 Zrotation Xrotation Yrotation
                                        End Site
                                        {
                                            OFFSET   2.582190   0.000000   0.000000
                                        }
                                    }
                                }
                            }
                            JOINT LeftFinger1
                            {
                                OFFSET   8.364480   0.000000   3.252850
                                CHANNELS 3 Zrotation Xrotation Yrotation
                                JOINT LeftFinger11
                                {
                                    OFFSET   4.646920   0.000000   0.000000
                                    CHANNELS 3 Zrotation Xrotation Yrotation
                                    JOINT LeftFinger12
                                    {
                                        OFFSET   2.323460   0.000000   0.000000
                                        CHANNELS 3 Zrotation Xrotation Yrotation
                                        End Site
                                        {
                                            OFFSET   2.273050   0.000000   0.000000
                                        }
                                    }
                                }
                            }
                            JOINT LeftFinger2
                            {
                                OFFSET   8.364490   0.000016   1.078090
                                CHANNELS 3 Zrotation Xrotation Yrotation
                                JOINT LeftFinger21
                                {
                                    OFFSET   5.111620   0.000000   0.000000
                                    CHANNELS 3 Zrotation Xrotation Yrotation
                                    JOINT LeftFinger22
                                    {
                                        OFFSET   2.788150   0.000012   0.000000
                                        CHANNELS 3 Zrotation Xrotation Yrotation
                                        End Site
                                        {
                                            OFFSET   2.727660   0.000000   0.000000
                                        }
                                    }
                                }
                            }
                            JOINT LeftFinger3
                            {
                                OFFSET   7.899780   0.000014  -1.078090
                                CHANNELS 3 Zrotation Xrotation Yrotation
                                JOINT LeftFinger31
                                {
                                    OFFSET   4.646930   0.000000   0.000000
                                    CHANNELS 3 Zrotation Xrotation Yrotation
                                    JOINT LeftFinger32
                                    {
                                        OFFSET   2.323470   0.000000   0.000000
                                        CHANNELS 3 Zrotation Xrotation Yrotation
                                        End Site
                                        {
                                            OFFSET   2.273050   0.000000   0.000000
                                        }
                                    }
                                }
                            }
                            JOINT LeftFinger4
                            {
                                OFFSET   7.435090   0.000000  -3.252850
                                CHANNELS 3 Zrotation Xrotation Yrotation
                                JOINT LeftFinger41
                                {
                                    OFFSET   3.717550   0.000000   0.000000
                                    CHANNELS 3 Zrotation Xrotation Yrotation
                                    JOINT LeftFinger42
                                    {
                                        OFFSET   1.858770   0.000000   0.000000
                                        CHANNELS 3 Zrotation Xrotation Yrotation
                                        End Site
                                        {
                                            OFFSET   1.818440   0.000000   0.000000
                                        }
                                    }
                                }
                            }
                        }
                    }
                }
            }
            JOINT RightCollar
            {
                OFFSET  -3.911900  19.017000  -0.467063
                CHANNELS 3 Zrotation Xrotation Yrotation
                JOINT RightShoulder
                {
                    OFFSET -10.383700   0.000023   0.000000
                    CHANNELS 3 Zrotation Xrotation Yrotation
                    JOINT RightElbow
                    {
                        OFFSET -26.662100   0.001246   0.001011
                        CHANNELS 3 Zrotation Xrotation Yrotation
                        JOINT RightWrist
                        {
                            OFFSET -28.869000  -0.000026  -0.000078
                            CHANNELS 3 Zrotation Xrotation Yrotation
                            JOINT RightFinger0
                            {
                                OFFSET  -2.044660  -2.323490   3.252850
                                CHANNELS 3 Zrotation Xrotation Yrotation
                                JOINT RightFinger01
                                {
                                    OFFSET  -3.088130   0.000000   0.000000
                                    CHANNELS 3 Zrotation Xrotation Yrotation
                                    JOINT RightFinger02
                                    {
                                        OFFSET  -2.639460   0.000000   0.000000
                                        CHANNELS 3 Zrotation Xrotation Yrotation
                                        End Site
                                        {
                                            OFFSET  -2.582190   0.000000   0.000000
                                        }
                                    }
                                }
                            }
                            JOINT RightFinger1
                            {
                                OFFSET  -8.364480   0.000000   3.252850
                                CHANNELS 3 Zrotation Xrotation Yrotation
                                JOINT RightFinger11
                                {
                                    OFFSET  -4.646920   0.000000   0.000000
                                    CHANNELS 3 Zrotation Xrotation Yrotation
                                    JOINT RightFinger12
                                    {
                                        OFFSET  -2.323470   0.000000   0.000000
                                        CHANNELS 3 Zrotation Xrotation Yrotation
                                        End Site
                                        {
                                            OFFSET  -2.273050   0.000000   0.000000
                                        }
                                    }
                                }
                            }
                            JOINT RightFinger2
                            {
                                OFFSET  -8.364480   0.000000   1.078090
                                CHANNELS 3 Zrotation Xrotation Yrotation
                                JOINT RightFinger21
                                {
                                    OFFSET  -5.111620   0.000000   0.000000
                                    CHANNELS 3 Zrotation Xrotation Yrotation
                                    JOINT RightFinger22
                                    {
                                        OFFSET  -2.788160   0.000000   0.000000
                                        CHANNELS 3 Zrotation Xrotation Yrotation
                                        End Site
                                        {
                                            OFFSET  -2.727660   0.000000   0.000000
                                        }
                                    }
                                }
                            }
                            JOINT RightFinger3
                            {
                                OFFSET  -7.899780   0.000000  -1.078090
                                CHANNELS 3 Zrotation Xrotation Yrotation
                                JOINT RightFinger31
                                {
                                    OFFSET  -4.646930   0.000000   0.000000
                                    CHANNELS 3 Zrotation Xrotation Yrotation
                                    JOINT RightFinger32
                                    {
                                        OFFSET  -2.323470   0.000000   0.000000
                                        CHANNELS 3 Zrotation Xrotation Yrotation
                                        End Site
                                        {
                                            OFFSET  -2.273050   0.000000   0.000000
                                        }
                                    }
                                }
                            }
                            JOINT RightFinger4
                            {
                                OFFSET  -7.435090   0.000000  -3.252850
                                CHANNELS 3 Zrotation Xrotation Yrotation
                                JOINT RightFinger41
                                {
                                    OFFSET  -3.717550   0.000000   0.000000
                                    CHANNELS 3 Zrotation Xrotation Yrotation
                                    JOINT RightFinger42
                                    {
                                        OFFSET  -1.858760   0.000000   0.000000
                                        CHANNELS 3 Zrotation Xrotation Yrotation
                                        End Site
                                        {
                                            OFFSET  -1.818440   0.000000   0.000000
                                        }
                                    }
                                }
                            }
                        }
                    }
                }
            }
        }
    }
    JOINT LeftHip
    {
        OFFSET   9.783010   0.000000   0.000000
        CHANNELS 3 Zrotation Xrotation Yrotation
        JOINT LeftKnee
        {
            OFFSET   0.000073 -41.789100   0.001749
            CHANNELS 3 Zrotation Xrotation Yrotation
            JOINT LeftAnkle
            {
                OFFSET   0.000111 -41.133200  -0.000179
                CHANNELS 3 Zrotation Xrotation Yrotation
                JOINT LeftToe
                {
                    OFFSET   0.000000  -6.358960  14.674500
                    CHANNELS 3 Zrotation Xrotation Yrotation
                    End Site
                    {
                        OFFSET   0.000000   0.000000   3.913200
                    }
                }
            }
        }
    }
    JOINT RightHip
    {
        OFFSET  -9.783010   0.000000   0.000000
        CHANNELS 3 Zrotation Xrotation Yrotation
        JOINT RightKnee
        {
            OFFSET   0.000424 -41.789200   0.005205
            CHANNELS 3 Zrotation Xrotation Yrotation
            JOINT RightAnkle
            {
                OFFSET   0.000000 -41.133200  -0.000155
                CHANNELS 3 Zrotation Xrotation Yrotation
                JOINT RightToe
                {
                    OFFSET   0.000000  -6.358960  14.674500
                    CHANNELS 3 Zrotation Xrotation Yrotation
                    End Site
                    {
                        OFFSET   0.000000   0.000000   3.913200
                    }
                }
            }
        }
    }
}
MOTION
Frames: 5
Frame Time:   0.016667
 -3.042480  89.171200   1.489300 -13.727100  -7.506540 -36.987500   1.681330   9.284710  -3.056390   3.948110  18.459500  -6.521670   2.671120   1.931190  -0.090099   4.401110   3.891960  24.814600  -2.006720   0.634219  -0.142935 -67.368000  25.842100  -9.058850  -3.400200  -8.780740 -21.959800  17.371000 -16.888200   6.656620  37.218900  31.145600 -60.208300 -33.808400   0.002476   0.003699 -11.904200  -0.002585  -0.001505 -33.151000   5.588630  -8.479630 -27.466000  -0.003038   0.002934 -19.226300  -0.003547   0.003770 -28.599300  -1.116390   2.046800 -37.683900  -0.005912   0.002666 -25.097400  -0.001620  -0.002337 -28.434300  -1.110580   2.049940 -35.689900  -0.004156   0.001889 -23.766600  -0.002468   0.001662 -31.834300  -1.230190   1.980480 -47.783900  -0.000337   0.003833 -31.824000  -0.004741   0.000747   4.621400  -2.547040   4.708890  32.412000 -17.278900   9.044400 -29.935000  -1.738840  21.192600 -34.724100 -16.442200  -6.685450 -42.084000  34.220300  67.966000  27.047400  -0.037264  -0.037934   8.523680  -0.021299  -0.014520  31.257300   3.599000   5.901740  25.728600  -0.007896  -0.007059  18.010000  -0.001830   0.001996  28.539700   1.341960   2.484290  35.782300  -0.021170  -0.021256  23.831100  -0.018570  -0.001733  27.146900  -1.003220  -1.950950  28.060300  -0.012534  -0.011425  18.688100  -0.001023  -0.000164  31.983300  -1.284260  -2.046570  48.018300  -0.012786  -0.000327  31.980200  -0.007373   0.003127   5.870750  22.012700   8.659450   0.952064   0.373842  28.137700  -3.380300  -7.432030  10.216500   0.000000   0.000000  -0.000000   6.483160  12.003600  -6.293450  -0.824499   3.348740   0.845825   1.796360  -2.080400  26.602400   0.000000   0.000000  -0.000000
 -2.978430  89.177700   1.520300 -13.574000  -7.721210 -36.244300   1.647920   9.259160  -2.986850   3.866420  18.413200  -6.372770   2.587420   1.812660  -0.081887   4.261950   3.653990  24.379300  -2.075480   0.532954  -0.081604 -67.530200  25.867000  -8.956220  -3.352340  -8.755850 -21.957500  17.427100 -16.889300   6.713150  37.216100  31.142700 -60.175200 -33.821800   0.002481   0.003703 -11.910900  -0.002583  -0.001511 -33.160300   5.562500  -8.438120 -27.467500  -0.003035   0.002939 -19.227300  -0.003544   0.003768 -28.597700  -1.134270   2.079660 -37.670800  -0.005913   0.002669 -25.088700  -0.001622  -0.002326 -28.433500  -1.128370   2.082860 -35.680400  -0.004152   0.001889 -23.763100  -0.002467   0.001655 -31.834100  -1.249880   2.012220 -47.784800  -0.000333   0.003832 -31.824700  -0.004737   0.000715   4.773240  -2.545280   4.714390  34.502600 -17.542100   9.117180 -29.867200  -2.128710  21.597200 -31.877600 -17.073500  -5.170570 -40.917600  33.517800  67.901000  27.841600  -0.021392  -0.029166   8.920800  -0.012925  -0.009321  31.958100   3.734100   5.987710  26.314000  -0.002195  -0.001160  18.419800  -0.001727   0.001819  28.597400   1.200660   2.256580  37.730500  -0.009451  -0.008942  25.128500  -0.008234  -0.001513  27.680900  -0.944418  -1.772410  29.553100  -0.007236  -0.006542  19.682300  -0.000927  -0.000475  32.673700  -1.149630  -1.770580  49.044700  -0.004329  -0.000281  32.663800  -0.002536   0.003104   5.822270  21.971000   8.633680   0.992335   0.252913  27.763900  -3.360380  -7.285460   9.875130  -0.000000   0.000000   0.000000   6.397380  12.087100  -6.257930  -0.832105   3.329690   0.734900   1.577730  -2.160130  25.847300  -0.000000   0.000000   0.000000
 -2.901870  89.192400   1.543330 -13.393500  -7.943400 -35.458100   1.614660   9.243100  -2.894680   3.786570  18.386400  -6.178390   2.494450   1.684760  -0.073332   4.106830   3.398450  23.815100  -2.152310   0.388308  -0.105636 -67.686700  25.835200  -8.842360  -3.300730  -8.627430 -21.910000  17.466500 -16.891700   6.760120  37.212400  31.138200 -60.165100 -33.835800   0.002474   0.003701 -11.917900  -0.002587  -0.001506 -33.161300   5.523370  -8.380170 -27.462600  -0.003035   0.002940 -19.223800  -0.003539   0.003762 -28.596200  -1.151420   2.111200 -37.662500  -0.005909   0.002668 -25.083200  -0.001621  -0.002331 -28.432800  -1.145340   2.114530 -35.656300  -0.004152   0.001888 -23.748300  -0.002470   0.001657 -31.821500  -1.268330   2.042980 -47.767700  -0.000330   0.003840 -31.813300  -0.004738  -0.008055   4.964850  -2.650870   4.727630  36.718800 -17.643900   9.021920 -29.481100  -2.918620  22.118800 -28.975100 -17.816800  -3.516030 -40.061500  32.771300  67.189100  28.456600  -0.015845  -0.025410   9.228280  -0.010075  -0.007027  31.940900   3.555730   5.703850  26.283800  -0.000998  -0.000194  18.398700  -0.001518   0.001645  28.634700   0.825556   1.578490  38.229200  -0.011823  -0.013114  25.460600  -0.010884  -0.001305  27.699400  -1.091150  -2.045060  30.098000  -0.009506  -0.013024  20.045300  -0.006247  -0.005128  32.754300  -1.290110  -1.988700  49.165100  -0.009013  -0.004839  32.744000  -0.006744   0.003076   5.759410  21.858700   8.605100   1.043370   0.243180  27.365200  -3.369880  -7.187490   9.517950   0.000000   0.000000  -0.000000   6.294860  12.161400  -6.188980  -0.840557   3.312450   0.615699   1.348050  -2.234190  25.018300  -0.000000   0.000000   0.000000
 -2.820350  89.210300   1.563040 -13.189500  -8.171870 -34.621900   1.587940   9.236920  -2.786390   3.709000  18.379700  -5.952420   2.387480   1.546200  -0.064452   3.928560   3.121460  23.148900  -2.241700   0.200457  -0.157082 -67.845900  25.777400  -8.714510  -3.232030  -8.438240 -21.820000  17.489100 -16.891900   6.803590  37.196100  31.125800 -60.146600 -33.849300   0.002467   0.003699 -11.924600  -0.002592  -0.001500 -33.151300   5.485580  -8.326530 -27.450900  -0.003035   0.002940 -19.215600  -0.003536   0.003758 -28.593300  -1.183330   2.169890 -37.633900  -0.005904   0.002664 -25.064200  -0.001619  -0.002336 -28.430900  -1.177060   2.173310 -35.624700  -0.004151   0.001886 -23.726100  -0.002474   0.001659 -31.800600  -1.302880   2.100050 -47.737600  -0.000328   0.003849 -31.793300  -0.004738  -0.016793   5.164010  -2.875040   4.749110  38.949000 -17.682600   8.713360 -28.804200  -3.895520  22.660100 -26.128700 -18.844700  -1.898460 -39.437300  32.099500  66.312600  28.924500  -0.012981  -0.021565   9.462220  -0.008280  -0.005645  31.885800   3.261650   5.235340  26.213900  -0.000650   0.000082  18.349800  -0.001224   0.001470  28.658100   0.371745   0.744709  38.392000  -0.015358  -0.018849  25.569000  -0.014692  -0.001104  27.697800  -1.352800  -2.542320  30.325700  -0.012711  -0.020739  20.197000  -0.012812  -0.009880  32.790500  -1.561200  -2.408910  49.243000  -0.015547  -0.010609  32.795900  -0.012521   0.003042   5.688560  21.713100   8.570710   1.118790   0.242592  26.934300  -3.386610  -7.108150   9.149490   0.000000   0.000000   0.000000   6.187220  12.237400  -6.101490  -0.849663   3.288090   0.500098   1.116960  -2.307680  24.102400   0.000000   0.000000  -0.000000
 -2.737280  89.227100   1.582200 -12.964000  -8.403070 -33.733900   1.570720   9.238300  -2.657940   3.647920  18.388100  -5.687420   2.256720   1.393630  -0.054970   3.711560   2.815930  22.382900  -2.350490  -0.054785  -0.242704 -68.021800  25.734700  -8.567900  -3.169120  -8.236380 -21.718300  17.478900 -16.855200   6.849240  37.080500  30.881200 -59.753900 -33.863200   0.002471   0.003704 -11.931600  -0.002589  -0.001503 -33.135800   5.461010  -8.294850 -27.435500  -0.003035   0.002936 -19.204800  -0.003544   0.003763 -28.581300  -1.272560   2.333660 -37.487000  -0.005903   0.002656 -24.966400  -0.001622  -0.002327 -28.424500  -1.266200   2.336960 -35.594700  -0.004155   0.001892 -23.706100  -0.002468   0.001658 -31.783400  -1.401650   2.257900 -47.714800  -0.000331   0.003839 -31.778100  -0.004739  -0.016622   5.320240  -3.183800   4.766490  41.001100 -17.276600   8.149880 -27.761200  -4.949950  23.138200 -23.650700 -20.500200  -0.640241 -38.952700  31.554900  65.546100  29.270000  -0.009338  -0.012848   9.634990  -0.005376  -0.004701  31.758800   2.978320   4.779900  26.084900  -0.000119   0.000486  18.259500  -0.000828   0.001290  28.674600  -0.125620  -0.209149  38.623200  -0.017638  -0.020934  25.723000  -0.016672  -0.000896  27.734900  -1.665880  -3.168020  30.680700  -0.014184  -0.022177  20.433400  -0.014264  -0.010343  32.935500  -1.943100  -2.999190  49.483000  -0.018267  -0.012023  32.955700  -0.014593   0.003004   5.614480  21.556000   8.528730   1.180450   0.248631  26.473800  -3.396160  -7.033930   8.769370  -0.000000   0.000000   0.000000   6.085390  12.324800  -5.999910  -0.860443   3.243000   0.409418   0.885903  -2.382800  23.066600  -0.000000   0.000000  -0.000000
